<svg width="21" height="21" viewBox="0 0 21 21" fill="none" xmlns="http://www.w3.org/2000/svg">
<mask id="mask0_4143_24479" style="mask-type:alpha" maskUnits="userSpaceOnUse" x="0" y="0" width="21" height="21">
<rect x="0.0800781" y="0.962891" width="20" height="20" fill="#D9D9D9"/>
</mask>
<g mask="url(#mask0_4143_24479)">
<path d="M10.0855 14.1292C10.9691 14.1292 11.717 13.8216 12.3291 13.2063C12.9413 12.5909 13.2474 11.8414 13.2474 10.9578C13.2474 10.0742 12.9398 9.32632 12.3245 8.71423C11.7091 8.10201 10.9595 7.7959 10.0759 7.7959C9.19233 7.7959 8.44448 8.10354 7.8324 8.71881C7.22017 9.33423 6.91406 10.0837 6.91406 10.9674C6.91406 11.851 7.2217 12.5988 7.83698 13.2109C8.4524 13.8231 9.20191 14.1292 10.0855 14.1292ZM10.0893 18.1292C9.10385 18.1292 8.17545 17.9428 7.30406 17.5701C6.43281 17.1973 5.6699 16.684 5.01531 16.0301C4.36073 15.3762 3.84691 14.6142 3.47385 13.7442C3.10066 12.8744 2.91406 11.9449 2.91406 10.9559C2.91406 9.96673 3.10045 9.03993 3.47323 8.17548C3.84601 7.31118 4.35934 6.55173 5.01323 5.89715C5.66712 5.24256 6.42906 4.72875 7.29906 4.35569C8.16892 3.9825 9.09837 3.7959 10.0874 3.7959C11.0766 3.7959 12.0034 3.98229 12.8678 4.35507C13.7321 4.72784 14.4916 5.24118 15.1461 5.89507C15.8007 6.54895 16.3145 7.30923 16.6876 8.1759C17.0608 9.04257 17.2474 9.96861 17.2474 10.954C17.2474 11.9394 17.061 12.8678 16.6882 13.7392C16.3155 14.6105 15.8021 15.3734 15.1482 16.028C14.4943 16.6826 13.7341 17.1964 12.8674 17.5694C12.0007 17.9426 11.0747 18.1292 10.0893 18.1292ZM10.0807 17.4626C11.8863 17.4626 13.421 16.8306 14.6849 15.5667C15.9488 14.3028 16.5807 12.7681 16.5807 10.9626C16.5807 9.15701 15.9488 7.62229 14.6849 6.3584C13.421 5.09451 11.8863 4.46257 10.0807 4.46257C8.27517 4.46257 6.74045 5.09451 5.47656 6.3584C4.21267 7.62229 3.58073 9.15701 3.58073 10.9626C3.58073 12.7681 4.21267 14.3028 5.47656 15.5667C6.74045 16.8306 8.27517 17.4626 10.0807 17.4626Z" fill="currentColor"/>
</g>
</svg>
