<svg width="25" height="25" viewBox="0 0 25 25" fill="none" xmlns="http://www.w3.org/2000/svg">
<mask id="mask0_4133_675" style="mask-type:alpha" maskUnits="userSpaceOnUse" x="0" y="0" width="25" height="25">
<rect x="0.0839844" y="0.541016" width="24" height="24" fill="#D9D9D9"/>
</mask>
<g mask="url(#mask0_4133_675)">
<path d="M3.46828 18.541C3.00811 18.541 2.62386 18.3868 2.31553 18.0785C2.00719 17.7702 1.85303 17.3858 1.85303 16.9255V8.15652C1.85303 7.69618 2.00719 7.31185 2.31553 7.00352C2.62386 6.69518 3.00811 6.54102 3.46828 6.54102H12.2375C12.6979 6.54102 13.0822 6.69518 13.3905 7.00352C13.6989 7.31185 13.853 7.69618 13.853 8.15652V16.9255C13.853 17.3858 13.6989 17.7702 13.3905 18.0785C13.0822 18.3868 12.6979 18.541 12.2375 18.541H3.46828ZM3.46828 17.541H12.2375C12.3914 17.541 12.5324 17.4769 12.6608 17.3488C12.7889 17.2206 12.853 17.0795 12.853 16.9255V8.15652C12.853 8.00252 12.7889 7.86143 12.6608 7.73327C12.5324 7.6051 12.3914 7.54102 12.2375 7.54102H3.46828C3.31444 7.54102 3.17344 7.6051 3.04528 7.73327C2.91711 7.86143 2.85303 8.00252 2.85303 8.15652V16.9255C2.85303 17.0795 2.91711 17.2206 3.04528 17.3488C3.17344 17.4769 3.31444 17.541 3.46828 17.541ZM17.0838 18.541V6.54102H18.0838V18.541H17.0838ZM21.3145 18.541V6.54102H22.3145V18.541H21.3145Z" fill="#1C1B1F"/>
</g>
</svg>
