<svg width="21" height="21" viewBox="0 0 21 21" fill="none" xmlns="http://www.w3.org/2000/svg">
<mask id="mask0_5800_15306" style="mask-type:alpha" maskUnits="userSpaceOnUse" x="0" y="0" width="21" height="21">
<rect x="0.34668" y="0.944824" width="20" height="20" fill="#D9D9D9"/>
</mask>
<g mask="url(#mask0_5800_15306)">
<path d="M4.78889 15.4192C4.28042 14.7995 3.88514 14.1125 3.60306 13.3584C3.32097 12.6041 3.17993 11.7995 3.17993 10.9448C3.17993 9.0933 3.79424 7.49156 5.02285 6.13962C6.25146 4.78753 7.7691 4.01427 9.57577 3.81982V4.48649C7.96146 4.69163 6.60299 5.40531 5.50035 6.62753C4.39785 7.84976 3.8466 9.28885 3.8466 10.9448C3.8466 11.7087 3.96813 12.4309 4.21118 13.1115C4.45424 13.792 4.79799 14.4101 5.24243 14.9657L4.78889 15.4192ZM10.3466 18.1115C9.49188 18.1115 8.68472 17.9697 7.92514 17.6861C7.16556 17.4023 6.46896 17.0062 5.83535 16.4977L6.32097 16.0282C6.87653 16.4726 7.49535 16.8198 8.17743 17.0698C8.85965 17.3198 9.58271 17.4448 10.3466 17.4448C11.1105 17.4448 11.8335 17.3172 12.5158 17.0619C13.1978 16.8065 13.822 16.4566 14.3883 16.0121L14.8739 16.4817C14.2403 16.9902 13.5437 17.3889 12.7841 17.6779C12.0245 17.967 11.212 18.1115 10.3466 18.1115ZM15.9203 15.4032L15.4508 14.9336C15.8845 14.378 16.2256 13.7627 16.4741 13.0875C16.7224 12.4123 16.8466 11.698 16.8466 10.9448C16.8466 9.28885 16.298 7.8551 15.2008 6.64357C14.1035 5.43205 12.7531 4.71837 11.1495 4.50253V3.83587C12.9455 4.04101 14.4551 4.81427 15.6783 6.15566C16.9016 7.49691 17.5133 9.0933 17.5133 10.9448C17.5133 11.7995 17.3749 12.6014 17.0983 13.3502C16.8215 14.0991 16.4288 14.7834 15.9203 15.4032ZM8.76327 13.6757V8.21399L13.0774 10.9448L8.76327 13.6757Z" fill="#1C1B1F"/>
</g>
</svg>
