<svg width="21" height="21" viewBox="0 0 21 21" fill="none" xmlns="http://www.w3.org/2000/svg">
<mask id="mask0_5800_15312" style="mask-type:alpha" maskUnits="userSpaceOnUse" x="0" y="0" width="21" height="21">
<rect x="0.34668" y="0.77002" width="20" height="20" fill="#D9D9D9"/>
</mask>
<g mask="url(#mask0_5800_15312)">
<path d="M8.76972 12.9498H9.43639V8.5906H8.76972V12.9498ZM11.2568 12.9498H11.9235V8.5906H11.2568V12.9498ZM10.3551 17.9368C9.36972 17.9368 8.44132 17.7514 7.56993 17.3804C6.69868 17.0093 5.93577 16.4983 5.28118 15.8475C4.6266 15.1965 4.11278 14.4378 3.73972 13.5714C3.36653 12.705 3.17993 11.779 3.17993 10.7933C3.17993 10.3166 3.22292 9.84824 3.30889 9.3881C3.39486 8.9281 3.52924 8.47852 3.71201 8.03935L4.23764 8.56497C4.11583 8.9122 4.02021 9.27178 3.95077 9.64372C3.88132 10.0155 3.8466 10.391 3.8466 10.7702C3.8466 12.5757 4.47854 14.1105 5.74243 15.3743C7.00632 16.6382 8.54104 17.2702 10.3466 17.2702C12.1522 17.2702 13.6869 16.6382 14.9508 15.3743C16.2147 14.1105 16.8466 12.5757 16.8466 10.7702C16.8466 8.96463 16.2147 7.4299 14.9508 6.16602C13.6869 4.90213 12.1533 4.27018 10.3499 4.27018C9.9866 4.27018 9.62021 4.30143 9.25076 4.36393C8.88118 4.42643 8.51514 4.51859 8.15264 4.64039L7.63181 4.11956C8.04208 3.98595 8.47077 3.86657 8.91785 3.76143C9.36507 3.65615 9.80924 3.60352 10.2503 3.60352C11.257 3.60352 12.197 3.78782 13.0703 4.15643C13.9437 4.52504 14.7128 5.03921 15.3778 5.69893C16.0428 6.35865 16.565 7.12143 16.9443 7.98727C17.3236 8.85324 17.5133 9.77845 17.5133 10.7629C17.5133 11.7475 17.3269 12.6755 16.9541 13.5468C16.5813 14.4181 16.068 15.181 15.4141 15.8356C14.7602 16.4902 13.9999 17.004 13.1333 17.3771C12.2666 17.7503 11.3406 17.9368 10.3551 17.9368ZM5.4491 6.60997C5.25146 6.60997 5.07924 6.5365 4.93243 6.38956C4.78549 6.24261 4.71201 6.07032 4.71201 5.87268C4.71201 5.67504 4.78549 5.50282 4.93243 5.35602C5.07924 5.20907 5.25146 5.1356 5.4491 5.1356C5.64674 5.1356 5.81903 5.20907 5.96597 5.35602C6.11292 5.50282 6.18639 5.67504 6.18639 5.87268C6.18639 6.07032 6.11292 6.24261 5.96597 6.38956C5.81903 6.5365 5.64674 6.60997 5.4491 6.60997Z" fill="#1C1B1F"/>
</g>
</svg>
