<svg width="25" height="25" viewBox="0 0 25 25" fill="none" xmlns="http://www.w3.org/2000/svg">
<mask id="mask0_299_12485" style="mask-type:alpha" maskUnits="userSpaceOnUse" x="0" y="0" width="25" height="25">
<rect x="0.488281" y="0.0429688" width="24" height="24" fill="#D9D9D9"/>
</mask>
<g mask="url(#mask0_299_12485)">
<path d="M12.8286 12.2352L14.7573 11.0717L16.6861 12.2352L16.1631 10.0392L17.8746 8.56422L15.6343 8.37747L14.7573 6.31222L13.8803 8.37747L11.6401 8.56422L13.3516 10.0392L12.8286 12.2352ZM17.3418 18.5045H18.8266C18.8252 18.7455 18.7438 18.9512 18.5823 19.1217C18.4208 19.2922 18.2176 19.3981 17.9726 19.4392L6.66883 20.8602C6.22133 20.9179 5.82167 20.8111 5.46983 20.54C5.11783 20.269 4.91492 19.9097 4.86108 19.4622L3.63233 9.74872C3.5785 9.30122 3.68942 8.89614 3.96508 8.53347C4.24075 8.17064 4.60225 7.96864 5.04958 7.92747L6.02658 7.85447V8.85447L5.20358 8.92172C5.02408 8.93455 4.883 9.0083 4.78033 9.14297C4.67783 9.27764 4.63942 9.43472 4.66508 9.61422L5.86108 19.3275C5.88675 19.507 5.96367 19.6481 6.09183 19.7507C6.22017 19.8532 6.37408 19.8916 6.55358 19.866L17.3418 18.5045ZM9.64183 16.5045C9.18167 16.5045 8.79742 16.3503 8.48908 16.042C8.18075 15.7336 8.02658 15.3494 8.02658 14.8892V4.65847C8.02658 4.19814 8.18075 3.8138 8.48908 3.50547C8.79742 3.19714 9.18167 3.04297 9.64183 3.04297H19.8726C20.3329 3.04297 20.7172 3.19714 21.0256 3.50547C21.3339 3.8138 21.4881 4.19814 21.4881 4.65847V14.8892C21.4881 15.3494 21.3339 15.7336 21.0256 16.042C20.7172 16.3503 20.3329 16.5045 19.8726 16.5045H9.64183ZM9.64183 15.5045H19.8726C20.0521 15.5045 20.1996 15.4468 20.3151 15.3315C20.4304 15.2161 20.4881 15.0687 20.4881 14.8892V4.65847C20.4881 4.47897 20.4304 4.33147 20.3151 4.21597C20.1996 4.10064 20.0521 4.04297 19.8726 4.04297H9.64183C9.46233 4.04297 9.31492 4.10064 9.19958 4.21597C9.08425 4.33147 9.02658 4.47897 9.02658 4.65847V14.8892C9.02658 15.0687 9.08425 15.2161 9.19958 15.3315C9.31492 15.4468 9.46233 15.5045 9.64183 15.5045Z" fill="#1C1B1F"/>
</g>
</svg>
