<svg width="25" height="25" viewBox="0 0 25 25" fill="none" xmlns="http://www.w3.org/2000/svg">
<mask id="mask0_4129_746" style="mask-type:alpha" maskUnits="userSpaceOnUse" x="0" y="0" width="25" height="25">
<rect x="0.30127" y="0.823242" width="24" height="24" fill="currentColor"/>
</mask>
<g mask="url(#mask0_4129_746)">
<path d="M9.96677 15.3232H10.9128L11.9435 12.7155H15.6705L16.7013 15.3232H17.6743L14.1205 6.32324H13.482L9.96677 15.3232ZM12.2398 11.9155L13.732 7.89624H13.832L15.3628 11.9155H12.2398ZM8.41677 17.8232C7.95644 17.8232 7.5721 17.6691 7.26377 17.3607C6.95544 17.0524 6.80127 16.6681 6.80127 16.2077V5.43874C6.80127 4.97841 6.95544 4.59408 7.26377 4.28574C7.5721 3.97741 7.95644 3.82324 8.41677 3.82324H19.1858C19.6461 3.82324 20.0304 3.97741 20.3388 4.28574C20.6471 4.59408 20.8013 4.97841 20.8013 5.43874V16.2077C20.8013 16.6681 20.6471 17.0524 20.3388 17.3607C20.0304 17.6691 19.6461 17.8232 19.1858 17.8232H8.41677ZM8.41677 16.8232H19.1858C19.3398 16.8232 19.4809 16.7592 19.609 16.631C19.7372 16.5028 19.8013 16.3617 19.8013 16.2077V5.43874C19.8013 5.28474 19.7372 5.14366 19.609 5.01549C19.4809 4.88733 19.3398 4.82324 19.1858 4.82324H8.41677C8.26277 4.82324 8.12169 4.88733 7.99352 5.01549C7.86535 5.14366 7.80127 5.28474 7.80127 5.43874V16.2077C7.80127 16.3617 7.86535 16.5028 7.99352 16.631C8.12169 16.7592 8.26277 16.8232 8.41677 16.8232ZM5.41677 20.8232C4.95644 20.8232 4.5721 20.6691 4.26377 20.3607C3.95544 20.0524 3.80127 19.6682 3.80127 19.208V7.43874H4.80127V19.208C4.80127 19.3618 4.86535 19.5028 4.99352 19.631C5.12169 19.7592 5.26277 19.8232 5.41677 19.8232H17.1858V20.8232H5.41677Z" fill="currentColor"/>
</g>
</svg>
