<svg width="25" height="25" viewBox="0 0 25 25" fill="none" xmlns="http://www.w3.org/2000/svg">
<mask id="mask0_4129_734" style="mask-type:alpha" maskUnits="userSpaceOnUse" x="0" y="0" width="25" height="25">
<rect x="0.387207" y="0.823242" width="24" height="24" fill="#D9D9D9"/>
</mask>
<g mask="url(#mask0_4129_734)">
<path d="M8.97171 17.9905C9.13587 17.9905 9.26029 17.9382 9.34496 17.8337C9.42946 17.7292 9.48204 17.5988 9.50271 17.4425C9.53604 17.1988 9.56196 16.952 9.58046 16.702C9.59912 16.452 9.61871 16.2078 9.63921 15.9695C9.65971 15.7733 9.68437 15.5765 9.71321 15.379C9.74204 15.1815 9.77504 14.9732 9.81221 14.754C10.234 14.6835 10.6507 14.6222 11.0622 14.5702C11.4737 14.5184 11.8865 14.4694 12.3007 14.4232C12.6969 14.3861 13.092 14.355 13.4862 14.33C13.8805 14.305 14.2719 14.2758 14.6602 14.2425C14.7435 14.5912 14.8182 14.9207 14.8842 15.231C14.9504 15.5412 15.0335 15.8572 15.1335 16.179C15.2283 16.447 15.3325 16.7188 15.446 16.9945C15.5593 17.27 15.6942 17.5122 15.8507 17.7212C15.9687 17.8789 16.1107 17.9853 16.2767 18.0405C16.4427 18.0957 16.6065 18.0784 16.768 17.9887C16.918 17.9104 16.9962 17.7898 17.0027 17.627C17.009 17.4642 16.9648 17.2719 16.87 17.0502C16.761 16.7899 16.658 16.5191 16.5612 16.2377C16.4644 15.9562 16.3807 15.6835 16.3102 15.4195C16.2525 15.199 16.1936 14.9865 16.1335 14.782C16.0731 14.5775 16.018 14.3707 15.968 14.1617C16.095 14.1579 16.217 14.1428 16.3342 14.1165C16.4515 14.0902 16.5557 14.0527 16.6467 14.004C16.7507 13.9553 16.8382 13.8857 16.9092 13.7952C16.9804 13.7049 17.016 13.5957 17.016 13.4675C17.016 13.3355 16.9657 13.2326 16.8652 13.1587C16.7645 13.0851 16.6456 13.0322 16.5085 13.0002C16.3968 12.9809 16.2798 12.9684 16.1575 12.9627C16.035 12.9569 15.9025 12.9642 15.7602 12.9847C15.7269 12.6976 15.6935 12.4177 15.6602 12.1452C15.6269 11.8729 15.5916 11.5932 15.5545 11.306C15.5173 11.0227 15.4747 10.7438 15.4267 10.4695C15.3785 10.195 15.3192 9.92249 15.2487 9.65199C15.1615 9.33416 15.0455 9.04666 14.9007 8.78949C14.7559 8.53249 14.5795 8.31041 14.3717 8.12324C14.1935 7.96558 13.9977 7.84408 13.7842 7.75874C13.5709 7.67358 13.3379 7.63099 13.0852 7.63099C12.7955 7.63099 12.5225 7.68358 12.266 7.78874C12.0096 7.89374 11.766 8.03858 11.5352 8.22324C11.2879 8.41941 11.0597 8.64408 10.8507 8.89724C10.6417 9.15041 10.4475 9.42508 10.268 9.72124C10.186 9.62124 10.1068 9.53858 10.0305 9.47324C9.95412 9.40791 9.85571 9.37524 9.73521 9.37524C9.61604 9.37524 9.50996 9.41241 9.41696 9.48674C9.32412 9.56107 9.27771 9.66366 9.27771 9.79449C9.27771 10.1713 9.25137 10.5482 9.19871 10.9252C9.14621 11.3021 9.08021 11.6726 9.00071 12.0367C8.93021 12.3547 8.85779 12.6621 8.78346 12.9587C8.70896 13.2556 8.63004 13.563 8.54671 13.881C8.45321 13.8887 8.36446 13.9024 8.28046 13.9222C8.19646 13.9421 8.11729 13.9662 8.04296 13.9945C7.92246 14.0265 7.82346 14.0762 7.74596 14.1435C7.66829 14.2108 7.62946 14.3047 7.62946 14.4252C7.62946 14.5162 7.65254 14.5925 7.69871 14.654C7.74487 14.7155 7.80962 14.7687 7.89296 14.8137C7.97629 14.8586 8.05704 14.8857 8.13521 14.8952C8.21354 14.9049 8.30204 14.9117 8.40071 14.9155C8.37121 15.154 8.34587 15.3896 8.32471 15.6222C8.30354 15.8549 8.29296 16.0931 8.29296 16.3367C8.29296 16.5586 8.30196 16.772 8.31996 16.977C8.33779 17.1822 8.37112 17.3681 8.41996 17.5347C8.46862 17.6757 8.53371 17.787 8.61521 17.8685C8.69654 17.9498 8.81537 17.9905 8.97171 17.9905ZM10.2277 13.4347C10.3532 12.9874 10.473 12.5429 10.5872 12.1012C10.7014 11.6596 10.8545 11.2278 11.0467 10.806C11.2622 10.3303 11.5455 9.88349 11.8967 9.46549C12.248 9.04766 12.6365 8.83874 13.0622 8.83874C13.3865 8.83874 13.6218 9.01241 13.768 9.35974C13.9141 9.70724 14.0225 10.1002 14.093 10.5387C14.1686 10.9489 14.2263 11.3649 14.266 11.7867C14.3058 12.2086 14.3552 12.6246 14.4142 13.0347C14.0667 13.0514 13.7141 13.0722 13.3565 13.0972C12.9988 13.1222 12.6526 13.1514 12.318 13.1847C11.9705 13.2181 11.622 13.2524 11.2727 13.2877C10.9234 13.3229 10.575 13.3719 10.2277 13.4347ZM5.00271 21.8232C4.55521 21.8232 4.17404 21.6659 3.85921 21.3512C3.54454 21.0364 3.38721 20.6552 3.38721 20.2077V5.43874C3.38721 4.99124 3.54454 4.61008 3.85921 4.29524C4.17404 3.98058 4.55521 3.82324 5.00271 3.82324H19.7717C20.2192 3.82324 20.6004 3.98058 20.9152 4.29524C21.2299 4.61008 21.3872 4.99124 21.3872 5.43874V20.2077C21.3872 20.6552 21.2299 21.0364 20.9152 21.3512C20.6004 21.6659 20.2192 21.8232 19.7717 21.8232H5.00271ZM5.00271 20.8232H19.7717C19.9512 20.8232 20.0987 20.7656 20.2142 20.6502C20.3295 20.5347 20.3872 20.3872 20.3872 20.2077V5.43874C20.3872 5.25924 20.3295 5.11174 20.2142 4.99624C20.0987 4.88091 19.9512 4.82324 19.7717 4.82324H5.00271C4.82321 4.82324 4.67571 4.88091 4.56021 4.99624C4.44487 5.11174 4.38721 5.25924 4.38721 5.43874V20.2077C4.38721 20.3872 4.44487 20.5347 4.56021 20.6502C4.67571 20.7656 4.82321 20.8232 5.00271 20.8232Z" fill="currentColor"/>
</g>
</svg>
