<svg width="25" height="25" viewBox="0 0 25 25" fill="none" xmlns="http://www.w3.org/2000/svg">
<mask id="mask0_4129_758" style="mask-type:alpha" maskUnits="userSpaceOnUse" x="0" y="0" width="25" height="25">
<rect x="0.161133" y="0.823242" width="24" height="24" fill="currentColor"/>
</mask>
<g mask="url(#mask0_4129_758)">
<path d="M6.10338 18.8232H10.6766V17.881H8.19388L9.35338 14.881H14.7996L15.9534 17.881H13.5206V18.8232H18.2189V17.881H17.0649L12.7266 6.82324H11.5054L7.16113 17.881H6.10338V18.8232ZM9.70913 13.9675L12.0439 8.00399H12.1419L14.4381 13.9675H9.70913ZM4.77663 21.8232C4.3163 21.8232 3.93197 21.6691 3.62363 21.3607C3.3153 21.0524 3.16113 20.6681 3.16113 20.2077V5.43874C3.16113 4.97841 3.3153 4.59408 3.62363 4.28574C3.93197 3.97741 4.3163 3.82324 4.77663 3.82324H19.5456C20.006 3.82324 20.3903 3.97741 20.6986 4.28574C21.007 4.59408 21.1611 4.97841 21.1611 5.43874V20.2077C21.1611 20.6681 21.007 21.0524 20.6986 21.3607C20.3903 21.6691 20.006 21.8232 19.5456 21.8232H4.77663ZM4.77663 20.8232H19.5456C19.6996 20.8232 19.8407 20.7592 19.9689 20.631C20.0971 20.5028 20.1611 20.3617 20.1611 20.2077V5.43874C20.1611 5.28474 20.0971 5.14366 19.9689 5.01549C19.8407 4.88733 19.6996 4.82324 19.5456 4.82324H4.77663C4.62263 4.82324 4.48155 4.88733 4.35338 5.01549C4.22522 5.14366 4.16113 5.28474 4.16113 5.43874V20.2077C4.16113 20.3617 4.22522 20.5028 4.35338 20.631C4.48155 20.7592 4.62263 20.8232 4.77663 20.8232Z" fill="currentColor"/>
</g>
</svg>
