<svg width="25" height="25" viewBox="0 0 25 25" fill="none" xmlns="http://www.w3.org/2000/svg">
<mask id="mask0_4129_728" style="mask-type:alpha" maskUnits="userSpaceOnUse" x="0" y="0" width="25" height="25">
<rect x="0.730957" y="0.823242" width="24" height="24" fill="currentColor"/>
</mask>
<g mask="url(#mask0_4129_728)">
<path d="M6.93096 18.8232H9.72321V18.4982H8.25596L9.60021 14.8232H13.6232L14.931 18.4982H13.5387V18.8232H17.608V18.4982H16.833L12.533 6.82324H12.0232L7.73096 18.4982H6.93096V18.8232ZM9.73096 14.4482L11.6387 9.19049L13.4982 14.4482H9.73096ZM5.34646 21.8232C4.88612 21.8232 4.50179 21.6691 4.19346 21.3607C3.88512 21.0524 3.73096 20.6681 3.73096 20.2077V5.43874C3.73096 4.97841 3.88512 4.59408 4.19346 4.28574C4.50179 3.97741 4.88612 3.82324 5.34646 3.82324H20.1155C20.5758 3.82324 20.9601 3.97741 21.2685 4.28574C21.5768 4.59408 21.731 4.97841 21.731 5.43874V20.2077C21.731 20.6681 21.5768 21.0524 21.2685 21.3607C20.9601 21.6691 20.5758 21.8232 20.1155 21.8232H5.34646ZM5.34646 20.8232H20.1155C20.2695 20.8232 20.4105 20.7592 20.5387 20.631C20.6669 20.5028 20.731 20.3617 20.731 20.2077V5.43874C20.731 5.28474 20.6669 5.14366 20.5387 5.01549C20.4105 4.88733 20.2695 4.82324 20.1155 4.82324H5.34646C5.19246 4.82324 5.05137 4.88733 4.92321 5.01549C4.79504 5.14366 4.73096 5.28474 4.73096 5.43874V20.2077C4.73096 20.3617 4.79504 20.5028 4.92321 20.631C5.05137 20.7592 5.19246 20.8232 5.34646 20.8232Z" fill="currentColor"/>
</g>
</svg>
