<svg width="41" height="41" viewBox="0 0 41 41" fill="none" xmlns="http://www.w3.org/2000/svg">
<path d="M36.9502 0.0644531C38.7908 0.0646304 40.283 1.55689 40.2832 3.39746V36.7314C40.283 38.572 38.7908 40.0643 36.9502 40.0645H3.61621C1.77564 40.0643 0.28338 38.572 0.283203 36.7314V3.39746C0.283379 1.55689 1.77564 0.064629 3.61621 0.0644531H36.9502ZM20.2842 4.32227C12.1815 4.32227 5.61719 10.8866 5.61719 18.9893C5.61733 25.4784 9.81627 30.9607 15.6455 32.9033C16.3784 33.0311 16.6531 32.5932 16.6533 32.208C16.6533 31.8587 16.6357 30.7036 16.6357 29.4756C12.9506 30.1542 11.9975 28.5769 11.7041 27.7529C11.5388 27.3303 10.8238 26.0287 10.2012 25.6807C9.68784 25.4046 8.95338 24.7276 10.1826 24.709C11.3372 24.6904 12.1628 25.7716 12.4375 26.2129C13.7575 28.4301 15.865 27.8072 16.709 27.4219C16.837 26.4689 17.2223 25.8276 17.6436 25.4609C14.3797 25.0942 10.9709 23.8288 10.9707 18.2188C10.9707 16.6242 11.5387 15.304 12.4746 14.2773C12.3266 13.9107 11.8133 12.4078 12.6211 10.3906C12.6211 10.3906 13.8493 10.0065 16.6533 11.8945C17.8473 11.5633 19.0813 11.3964 20.3203 11.3994C21.5681 11.3995 22.8145 11.5639 23.9863 11.8945C26.7716 10.0015 28.002 10.385 28.0195 10.3906C28.8261 12.4079 28.3146 13.9107 28.168 14.2773C29.1025 15.304 29.6709 16.6069 29.6709 18.2188C29.6707 23.8477 26.2424 25.0943 22.9785 25.4609C23.5105 25.9196 23.9687 26.7994 23.9688 28.1738C23.9688 30.1352 23.9502 31.7133 23.9502 32.208C23.9504 32.5933 24.2259 33.0499 24.959 32.9033C30.752 30.9605 34.9501 25.4609 34.9502 18.9893C34.9502 10.8867 28.388 4.32244 20.2842 4.32227Z" fill="black"/>
</svg>
