<svg width="41" height="41" viewBox="0 0 41 41" fill="none" xmlns="http://www.w3.org/2000/svg">
<path d="M36.0389 0.0644531H5.56269C2.93411 0.0644531 0.800781 2.19779 0.800781 4.82636V35.3025C0.800781 37.9311 2.93411 40.0645 5.56269 40.0645H36.0389C38.6674 40.0645 40.8008 37.9311 40.8008 35.3025V4.82636C40.8008 2.19779 38.6674 0.0644531 36.0389 0.0644531ZM13.1817 15.3025V33.3978H7.46745V15.3025H13.1817ZM7.46745 10.0359C7.46745 8.70255 8.61031 7.6835 10.3246 7.6835C12.0389 7.6835 13.1151 8.70255 13.1817 10.0359C13.1817 11.3692 12.1151 12.4454 10.3246 12.4454C8.61031 12.4454 7.46745 11.3692 7.46745 10.0359ZM34.1341 33.3978H28.4198C28.4198 33.3978 28.4198 24.5787 28.4198 23.874C28.4198 21.9692 27.4674 20.0645 25.0865 20.0264H25.0103C22.7055 20.0264 21.7532 21.9883 21.7532 23.874C21.7532 24.7406 21.7532 33.3978 21.7532 33.3978H16.0389V15.3025H21.7532V17.7406C21.7532 17.7406 23.5913 15.3025 27.2865 15.3025C31.0674 15.3025 34.1341 17.9025 34.1341 23.1692V33.3978Z" fill="black"/>
</svg>
