<svg width="40" height="41" viewBox="0 0 40 41" fill="none" xmlns="http://www.w3.org/2000/svg">
<path d="M36.6667 0.0644531H3.33333C1.4925 0.0644531 0 1.55695 0 3.39779V36.7311C0 38.572 1.4925 40.0645 3.33333 40.0645H36.6667C38.5075 40.0645 40 38.572 40 36.7311V3.39779C40 1.55695 38.5075 0.0644531 36.6667 0.0644531ZM32.5 9.64779L30.9825 11.4786C30.8867 11.5736 30.8333 11.702 30.8333 11.8353V28.1895C30.8333 28.3228 30.8867 28.4511 30.9825 28.5461L32.5 30.5195V30.8978H24.1667V30.5195L26.5175 28.5461C26.6133 28.4511 26.6667 28.3228 26.6667 28.1895V13.297L19.8733 30.8978H18.5867L11.6667 13.7103V27.1336C11.6667 27.317 11.73 27.4945 11.8458 27.6378L14.1667 30.5195V30.8978H7.5V30.5195L9.81917 27.6545C9.93583 27.5111 10 27.332 10 27.1478V12.0545C10 11.9361 9.95833 11.822 9.88167 11.7311L8.33333 9.64779V9.23112H14.2475L20.6008 25.217L26.6683 9.23112H32.5V9.64779Z" fill="currentColor"/>
</svg>
